<svg width="763" height="113" viewBox="0 0 763 113" fill="none" xmlns="http://www.w3.org/2000/svg">
<path d="M118.713 81.8271C116.418 85.5381 113.317 89.2246 109.411 92.8867C105.505 96.5 101.037 99.7715 96.0078 102.701C91.0273 105.582 85.583 107.901 79.6748 109.659C73.7666 111.466 67.6631 112.369 61.3643 112.369C56.4326 112.369 51.501 111.93 46.5693 111.051C41.6865 110.172 36.9746 108.829 32.4336 107.022C27.9414 105.216 23.7422 102.945 19.8359 100.211C15.9785 97.4277 12.6094 94.1562 9.72852 90.3965C6.84766 86.6367 4.57715 82.3643 2.91699 77.5791C1.30566 72.7939 0.5 67.4717 0.5 61.6123C0.5 55.8994 1.33008 50.4795 2.99023 45.3525C4.69922 40.2256 7.06738 35.4893 10.0947 31.1436C13.1221 26.749 16.7109 22.7939 20.8613 19.2783C25.0117 15.7627 29.5527 12.7842 34.4844 10.3428C39.416 7.85254 44.6162 5.94824 50.085 4.62988C55.5537 3.31152 61.1445 2.65234 66.8574 2.65234C73.1562 2.65234 79.0645 3.40918 84.582 4.92285C90.1484 6.3877 95.0068 8.4873 99.1572 11.2217C103.308 13.9072 106.579 17.1543 108.972 20.9629C111.413 24.7227 112.634 28.9219 112.634 33.5605C112.634 37.8574 111.633 41.959 109.631 45.8652C107.629 49.7227 104.87 53.1162 101.354 56.0459C97.8877 58.9756 93.8105 61.2949 89.123 63.0039C84.4844 64.7129 79.5283 65.5674 74.2549 65.5674C70.0068 65.5674 66.2471 65.0547 62.9756 64.0293C59.7041 62.9551 56.9697 61.4902 54.7725 59.6348C52.5752 57.7793 50.915 55.6064 49.792 53.1162C48.6689 50.626 48.1074 47.9404 48.1074 45.0596C48.1074 42.667 48.4736 40.4941 49.2061 38.541C49.9873 36.5391 50.8174 34.8301 51.6963 33.4141C52.624 31.998 53.4785 30.8994 54.2598 30.1182C55.0898 29.2881 55.5537 28.8242 55.6514 28.7266C55.8955 28.4824 56.1641 28.3359 56.457 28.2871C56.7988 28.1895 57.1162 28.1406 57.4092 28.1406C58.1904 28.1406 58.8496 28.3848 59.3867 28.873C59.9238 29.3613 60.1924 29.9961 60.1924 30.7773C60.1924 31.6562 59.875 32.3887 59.2402 32.9746C59.1426 33.0234 58.8008 33.3652 58.2148 34C57.6289 34.5859 56.9941 35.416 56.3105 36.4902C55.627 37.5156 54.9922 38.7607 54.4062 40.2256C53.8691 41.6904 53.6006 43.3018 53.6006 45.0596C53.6006 47.8428 54.2109 50.1865 55.4316 52.0908C56.7012 53.9951 58.3369 55.5576 60.3389 56.7783C62.3408 57.9502 64.5625 58.8047 67.0039 59.3418C69.4453 59.8301 71.8867 60.0742 74.3281 60.0742C78.8691 60.0742 83.1172 59.3418 87.0723 57.877C91.0762 56.4121 94.5674 54.459 97.5459 52.0176C100.524 49.5762 102.868 46.7686 104.577 43.5947C106.286 40.4209 107.141 37.1006 107.141 33.6338C107.141 29.8252 106.066 26.3584 103.918 23.2334C101.77 20.0596 98.8643 17.374 95.2021 15.1768C91.54 12.9307 87.2432 11.1973 82.3115 9.97656C77.4287 8.75586 72.2041 8.14551 66.6377 8.14551C62.4385 8.14551 58.0195 8.6582 53.3809 9.68359C48.791 10.6602 44.25 12.1494 39.7578 14.1514C35.2656 16.1533 30.9688 18.6436 26.8672 21.6221C22.8145 24.6006 19.25 28.0918 16.1738 32.0957C13.0977 36.0508 10.6318 40.4941 8.77637 45.4258C6.96973 50.3574 6.06641 55.7529 6.06641 61.6123C6.06641 66.9346 6.79883 71.7441 8.26367 76.041C9.77734 80.3379 11.8525 84.1709 14.4893 87.54C17.126 90.8604 20.2021 93.7412 23.7178 96.1826C27.2822 98.624 31.0908 100.65 35.1436 102.262C39.2451 103.824 43.5176 104.996 47.9609 105.777C52.4043 106.51 56.8232 106.876 61.2178 106.876C67.0771 106.876 72.7168 106.07 78.1367 104.459C83.5566 102.799 88.5615 100.65 93.1514 98.0137C97.79 95.3281 101.892 92.3252 105.456 89.0049C109.021 85.6846 111.853 82.3398 113.952 78.9707C114.196 78.5312 114.538 78.2139 114.978 78.0186C115.417 77.7744 115.881 77.6523 116.369 77.6523C117.199 77.6523 117.858 77.9453 118.347 78.5312C118.835 79.0684 119.079 79.6787 119.079 80.3623C119.079 80.6064 119.055 80.8506 119.006 81.0947C118.957 81.3389 118.859 81.583 118.713 81.8271ZM134.021 78.8975C133.825 80.2158 133.581 81.4609 133.288 82.6328C132.995 83.7559 132.702 84.7568 132.409 85.6357C132.165 86.4658 131.945 87.1494 131.75 87.6865C131.555 88.2236 131.433 88.5166 131.384 88.5654C130.896 89.6885 130.041 90.25 128.82 90.25C128.137 90.25 127.502 90.0059 126.916 89.5176C126.33 88.9805 126.037 88.3213 126.037 87.54C126.037 87.2471 126.086 87.0273 126.184 86.8809C126.281 86.7344 126.428 86.4414 126.623 86.002C126.818 85.5625 127.062 84.8301 127.355 83.8047C127.648 82.7793 128.015 81.1924 128.454 79.0439C127.624 79.0439 126.77 79.0195 125.891 78.9707C125.012 78.9219 124.206 78.751 123.474 78.458C122.692 78.165 122.058 77.7012 121.569 77.0664C121.081 76.4316 120.837 75.5527 120.837 74.4297C120.837 73.5996 121.081 72.4766 121.569 71.0605C122.009 69.6445 122.619 68.2529 123.4 66.8857C124.182 65.5186 125.061 64.3467 126.037 63.3701C127.014 62.3447 127.99 61.832 128.967 61.832C130.09 61.832 130.993 62.2471 131.677 63.0771C132.409 63.9072 132.971 64.9326 133.361 66.1533C133.752 67.3252 134.021 68.5703 134.167 69.8887C134.362 71.207 134.46 72.3545 134.46 73.3311C135.29 73.3311 136.096 73.3311 136.877 73.3311C137.707 73.2822 138.488 73.2578 139.221 73.2578C142.004 73.2578 144.128 73.8682 145.593 75.0889C147.058 76.3096 147.79 78.3115 147.79 81.0947C147.79 82.2178 147.717 83.3896 147.57 84.6104C147.424 85.8311 147.253 87.1006 147.058 88.4189C146.862 89.6885 146.691 90.958 146.545 92.2275C146.398 93.4971 146.325 94.7422 146.325 95.9629C146.325 97.7207 146.569 99.1855 147.058 100.357C147.546 101.48 148.156 102.384 148.889 103.067C149.621 103.751 150.402 104.239 151.232 104.532C152.062 104.776 152.819 104.898 153.503 104.898C155.603 104.898 157.58 104.215 159.436 102.848C161.291 101.48 163 99.8447 164.562 97.9404C166.125 95.9873 167.517 93.9365 168.737 91.7881C170.007 89.6396 171.057 87.7598 171.887 86.1484C172.131 85.709 172.473 85.3672 172.912 85.123C173.352 84.8789 173.815 84.7568 174.304 84.7568C175.183 84.7568 175.866 85.0498 176.354 85.6357C176.843 86.1729 177.087 86.7832 177.087 87.4668C177.087 87.9551 176.989 88.3945 176.794 88.7852C175.671 90.7871 174.353 93.0576 172.839 95.5967C171.374 98.0869 169.689 100.431 167.785 102.628C165.881 104.825 163.732 106.681 161.34 108.194C158.996 109.708 156.408 110.465 153.576 110.465C151.818 110.465 150.158 110.123 148.596 109.439C147.033 108.805 145.666 107.877 144.494 106.656C143.371 105.387 142.468 103.849 141.784 102.042C141.101 100.187 140.759 98.1113 140.759 95.8164C140.759 93.375 141.003 90.958 141.491 88.5654C141.979 86.124 142.224 83.8047 142.224 81.6074C142.224 80.6797 142.004 79.9961 141.564 79.5566C141.174 79.0684 140.271 78.8242 138.854 78.8242C138.171 78.8242 137.414 78.8242 136.584 78.8242C135.803 78.8242 134.948 78.8486 134.021 78.8975ZM129.113 73.4775C129.113 73.1357 129.089 72.6963 129.04 72.1592C129.04 71.5732 128.991 71.0117 128.894 70.4746C128.845 69.9375 128.747 69.4736 128.601 69.083C128.503 68.6924 128.381 68.4971 128.234 68.4971C128.088 68.4971 127.893 68.6924 127.648 69.083C127.453 69.4248 127.233 69.8643 126.989 70.4014C126.745 70.8896 126.525 71.4268 126.33 72.0127C126.135 72.5986 125.988 73.0869 125.891 73.4775H129.113ZM180.676 100.943C181.701 102.359 183.02 103.507 184.631 104.386C186.242 105.216 188.22 105.631 190.563 105.631C192.956 105.631 195.129 105.069 197.082 103.946C199.035 102.774 200.817 101.261 202.429 99.4053C204.04 97.5498 205.48 95.4746 206.75 93.1797C208.02 90.8848 209.167 88.5898 210.192 86.2949C210.437 85.7578 210.778 85.3672 211.218 85.123C211.657 84.8301 212.146 84.6836 212.683 84.6836C213.513 84.6836 214.172 84.9766 214.66 85.5625C215.197 86.1484 215.466 86.7832 215.466 87.4668C215.466 87.7109 215.441 87.9307 215.393 88.126C215.344 88.2725 215.271 88.4434 215.173 88.6387C211.804 96.0605 208.117 101.651 204.113 105.411C200.158 109.171 195.666 111.1 190.637 111.197C187.414 111.197 184.631 110.562 182.287 109.293C179.943 108.072 178.015 106.485 176.501 104.532C174.987 102.53 173.864 100.284 173.132 97.7939C172.399 95.3037 172.033 92.8135 172.033 90.3232C172.033 87.833 172.326 85.5381 172.912 83.4385C173.547 81.3389 174.426 79.5078 175.549 77.9453C176.721 76.3828 178.088 75.1621 179.65 74.2832C181.262 73.4043 183.02 72.9648 184.924 72.9648C186.047 72.9648 187.146 73.209 188.22 73.6973C189.343 74.1367 190.344 74.7959 191.223 75.6748C192.102 76.5049 192.81 77.5303 193.347 78.751C193.884 79.9717 194.152 81.3633 194.152 82.9258C194.152 84.9277 193.811 86.8076 193.127 88.5654C192.443 90.3232 191.491 91.959 190.271 93.4727C189.099 94.9863 187.683 96.3779 186.022 97.6475C184.362 98.917 182.58 100.016 180.676 100.943ZM178.479 96.1826C179.992 95.5479 181.359 94.7422 182.58 93.7656C183.85 92.7891 184.924 91.7148 185.803 90.543C186.682 89.3711 187.365 88.1504 187.854 86.8809C188.342 85.5625 188.586 84.2441 188.586 82.9258C188.586 81.4609 188.22 80.3623 187.487 79.6299C186.755 78.8486 185.9 78.458 184.924 78.458C183.605 78.458 182.482 78.8242 181.555 79.5566C180.627 80.2891 179.87 81.2412 179.284 82.4131C178.698 83.585 178.259 84.9033 177.966 86.3682C177.722 87.7842 177.6 89.2002 177.6 90.6162C177.6 91.4951 177.673 92.4229 177.819 93.3994C178.015 94.376 178.234 95.3037 178.479 96.1826ZM266.882 88.5654C266.687 88.9561 266.271 89.7861 265.637 91.0557C265.051 92.2764 264.27 93.6924 263.293 95.3037C262.365 96.915 261.267 98.5996 259.997 100.357C258.728 102.115 257.312 103.727 255.749 105.191C254.187 106.656 252.502 107.877 250.695 108.854C248.889 109.781 246.984 110.245 244.982 110.245C242.15 110.245 239.758 109.342 237.805 107.535C235.9 105.729 234.509 103.458 233.63 100.724C231.97 103.507 229.992 105.729 227.697 107.389C225.402 109 223.107 109.806 220.812 109.806C219.006 109.806 217.37 109.488 215.905 108.854C214.44 108.17 213.195 107.242 212.17 106.07C211.145 104.85 210.339 103.434 209.753 101.822C209.216 100.211 208.947 98.4531 208.947 96.5488C208.947 92.7402 209.582 89.3955 210.852 86.5146C212.17 83.585 213.83 81.1436 215.832 79.1904C217.834 77.2373 220.031 75.7725 222.424 74.7959C224.865 73.8193 227.209 73.3311 229.455 73.3311C230.969 73.3311 232.36 73.5508 233.63 73.9902C234.899 74.3809 235.974 74.8203 236.853 75.3086C237.78 75.7969 238.488 76.2607 238.977 76.7002C239.465 77.0908 239.733 77.3105 239.782 77.3594C240.319 77.9941 240.588 78.6533 240.588 79.3369C240.588 80.0693 240.319 80.7285 239.782 81.3145C239.245 81.8516 238.61 82.1201 237.878 82.1201C237.097 82.1201 236.438 81.8516 235.9 81.3145C235.803 81.2168 235.583 81.0459 235.241 80.8018C234.899 80.5088 234.436 80.2158 233.85 79.9229C233.264 79.6299 232.556 79.3857 231.726 79.1904C230.944 78.9463 230.041 78.8242 229.016 78.8242C227.502 78.8242 225.891 79.166 224.182 79.8496C222.473 80.5332 220.91 81.6074 219.494 83.0723C218.078 84.4883 216.882 86.2949 215.905 88.4922C214.978 90.6406 214.514 93.2041 214.514 96.1826C214.514 97.1104 214.611 98.0625 214.807 99.0391C215.002 99.9668 215.344 100.821 215.832 101.603C216.32 102.384 216.979 103.019 217.81 103.507C218.64 103.995 219.665 104.239 220.886 104.239C221.765 104.239 222.766 103.946 223.889 103.36C225.061 102.774 226.159 101.871 227.185 100.65C228.259 99.4297 229.211 97.8916 230.041 96.0361C230.92 94.1807 231.53 91.9834 231.872 89.4443C231.97 88.7607 232.287 88.1992 232.824 87.7598C233.361 87.2715 233.996 87.0273 234.729 87.0273C235.412 87.0273 235.998 87.2959 236.486 87.833C237.023 88.3701 237.316 88.9805 237.365 89.6641C237.414 90.5918 237.512 91.9102 237.658 93.6191C237.805 95.2793 238.122 96.9395 238.61 98.5996C239.147 100.26 239.929 101.7 240.954 102.921C241.979 104.142 243.396 104.752 245.202 104.752C246.374 104.752 247.521 104.435 248.645 103.8C249.816 103.165 250.939 102.335 252.014 101.31C253.137 100.235 254.187 99.0391 255.163 97.7207C256.188 96.3535 257.116 94.9863 257.946 93.6191C258.776 92.252 259.509 90.9336 260.144 89.6641C260.778 88.3945 261.315 87.2959 261.755 86.3682C261.999 85.8311 262.341 85.416 262.78 85.123C263.269 84.8301 263.781 84.6836 264.318 84.6836C265.148 84.6836 265.808 85.001 266.296 85.6357C266.833 86.2217 267.102 86.8564 267.102 87.54C267.102 87.8818 267.028 88.2236 266.882 88.5654ZM321.154 35.6846C321.154 36.4658 320.886 37.1006 320.349 37.5889C319.812 38.0283 319.152 38.248 318.371 38.248H281.237V39.0537C281.237 42.0322 281.018 45.2061 280.578 48.5752C280.139 51.9443 279.528 55.3135 278.747 58.6826C278.015 62.0029 277.16 65.25 276.184 68.4238C275.256 71.5977 274.279 74.5273 273.254 77.2129C272.277 79.8984 271.301 82.2422 270.324 84.2441C269.348 86.1973 268.469 87.6621 267.688 88.6387C268.322 90.8848 269.079 92.9844 269.958 94.9375C270.837 96.8418 271.813 98.5264 272.888 99.9912C274.011 101.407 275.207 102.53 276.477 103.36C277.746 104.19 279.113 104.605 280.578 104.605C282.287 104.605 283.972 103.897 285.632 102.481C287.341 101.017 288.903 99.3076 290.319 97.3545C291.784 95.3525 293.054 93.3506 294.128 91.3486C295.251 89.2979 296.057 87.6621 296.545 86.4414C297.033 85.2695 297.888 84.6836 299.108 84.6836C299.938 84.6836 300.598 84.9766 301.086 85.5625C301.623 86.1484 301.892 86.7832 301.892 87.4668C301.892 87.8086 301.818 88.1504 301.672 88.4922C301.525 88.834 301.159 89.6152 300.573 90.8359C300.036 92.0566 299.304 93.4727 298.376 95.084C297.497 96.6953 296.447 98.4043 295.227 100.211C294.055 101.969 292.712 103.58 291.198 105.045C289.733 106.51 288.146 107.73 286.438 108.707C284.729 109.684 282.922 110.172 281.018 110.172C277.648 110.172 274.621 109.073 271.936 106.876C269.25 104.679 266.955 101.603 265.051 97.6475C263.195 93.6924 261.779 89.0049 260.803 83.585C259.826 78.165 259.338 72.2324 259.338 65.7871C259.338 64.1758 259.362 62.2959 259.411 60.1475C259.46 57.9502 259.558 55.6553 259.704 53.2627C259.851 50.8213 260.07 48.3311 260.363 45.792C260.656 43.2041 261.047 40.6895 261.535 38.248H235.241C234.46 38.248 233.801 38.0283 233.264 37.5889C232.727 37.1006 232.458 36.4658 232.458 35.6846C232.458 34.9033 232.727 34.293 233.264 33.8535C233.801 33.3652 234.46 33.1211 235.241 33.1211H262.78C263.269 31.3633 263.83 29.752 264.465 28.2871C265.148 26.8223 265.905 25.5527 266.735 24.4785C267.614 23.4043 268.566 22.5742 269.592 21.9883C270.666 21.3535 271.838 21.0361 273.107 21.0361C274.328 21.0361 275.378 21.3535 276.257 21.9883C277.185 22.5742 277.966 23.4043 278.601 24.4785C279.235 25.5527 279.724 26.8223 280.065 28.2871C280.456 29.752 280.749 31.3633 280.944 33.1211H318.371C319.152 33.1211 319.812 33.3652 320.349 33.8535C320.886 34.293 321.154 34.9033 321.154 35.6846ZM266.003 81.3145C267.468 78.0918 268.786 74.625 269.958 70.9141C271.179 67.1543 272.204 63.3701 273.034 59.5615C273.913 55.7529 274.572 52.0176 275.012 48.3555C275.5 44.6934 275.744 41.3242 275.744 38.248H267.102C266.418 41.2754 265.856 45.0352 265.417 49.5273C265.026 53.9707 264.831 59.3906 264.831 65.7871C264.831 69.3516 264.929 72.3545 265.124 74.7959C265.319 77.1885 265.612 79.3613 266.003 81.3145ZM272.814 26.5293C272.375 26.5293 271.74 27.0176 270.91 27.9941C270.08 28.9219 269.25 30.6309 268.42 33.1211H275.451C275.207 31.0703 274.841 29.459 274.353 28.2871C273.913 27.1152 273.4 26.5293 272.814 26.5293ZM267.175 86.5879V86.6611V86.5879ZM308.776 51.5049C308.776 53.3604 308.117 54.9473 306.799 56.2656C305.529 57.5352 303.967 58.1699 302.111 58.1699C300.256 58.1699 298.669 57.5352 297.351 56.2656C296.081 54.9473 295.446 53.3604 295.446 51.5049C295.446 50.5771 295.617 49.7227 295.959 48.9414C296.301 48.1113 296.765 47.4033 297.351 46.8174C297.985 46.1826 298.693 45.6943 299.475 45.3525C300.305 45.0107 301.184 44.8398 302.111 44.8398C303.039 44.8398 303.894 45.0107 304.675 45.3525C305.505 45.6943 306.213 46.1826 306.799 46.8174C307.434 47.4033 307.922 48.1113 308.264 48.9414C308.605 49.7227 308.776 50.5771 308.776 51.5049ZM296.911 94.4248C296.911 87.3936 297.351 80.3867 298.229 73.4043C298.327 72.7207 298.62 72.1348 299.108 71.6465C299.646 71.1094 300.329 70.8408 301.159 70.8408C301.892 70.8408 302.502 71.1338 302.99 71.7197C303.479 72.2568 303.723 72.8916 303.723 73.624C303.723 73.917 303.649 74.7959 303.503 76.2607C303.405 77.7256 303.259 79.4834 303.063 81.5342C302.917 83.5361 302.771 85.6846 302.624 87.9795C302.526 90.2256 302.478 92.3008 302.478 94.2051C302.478 96.793 302.722 98.8926 303.21 100.504C303.747 102.066 304.406 103.287 305.188 104.166C306.018 105.045 306.872 105.631 307.751 105.924C308.679 106.217 309.558 106.363 310.388 106.363C311.755 106.363 313.171 105.875 314.636 104.898C316.101 103.922 317.59 102.555 319.104 100.797C320.666 99.0391 322.229 96.9395 323.791 94.498C325.354 92.0078 326.892 89.249 328.405 86.2217C328.649 85.7334 328.991 85.3672 329.431 85.123C329.87 84.8301 330.358 84.6836 330.896 84.6836C331.677 84.6836 332.312 84.9766 332.8 85.5625C333.337 86.1484 333.605 86.7832 333.605 87.4668C333.605 87.9551 333.508 88.3701 333.312 88.7119C332.727 89.835 331.994 91.2021 331.115 92.8135C330.236 94.4248 329.235 96.085 328.112 97.7939C326.989 99.5029 325.744 101.212 324.377 102.921C323.059 104.581 321.643 106.095 320.129 107.462C318.615 108.78 317.028 109.854 315.368 110.685C313.708 111.515 312.023 111.93 310.314 111.93C308.117 111.93 306.188 111.466 304.528 110.538C302.868 109.61 301.452 108.365 300.28 106.803C299.157 105.24 298.303 103.409 297.717 101.31C297.18 99.1611 296.911 96.8662 296.911 94.4248ZM304.675 51.5049C304.675 50.8213 304.406 50.2354 303.869 49.7471C303.381 49.21 302.795 48.9414 302.111 48.9414C301.428 48.9414 300.842 49.21 300.354 49.7471C299.865 50.2354 299.621 50.8213 299.621 51.5049C299.621 52.1885 299.865 52.7744 300.354 53.2627C300.842 53.751 301.428 53.9951 302.111 53.9951C302.795 53.9951 303.381 53.751 303.869 53.2627C304.406 52.7744 304.675 52.1885 304.675 51.5049ZM357.995 85.9287C357.263 89.3467 356.213 92.5449 354.846 95.5234C353.479 98.4531 352.014 101.017 350.451 103.214C348.938 105.411 347.399 107.145 345.837 108.414C344.274 109.684 342.932 110.367 341.809 110.465C340.539 110.465 339.123 109.83 337.561 108.561C336.047 107.291 334.582 105.533 333.166 103.287C331.799 100.992 330.651 98.2822 329.724 95.1572C328.796 92.0322 328.332 88.6387 328.332 84.9766C328.332 81.7539 328.601 79.3125 329.138 77.6523C329.724 75.9922 330.09 75.04 330.236 74.7959C330.48 74.3564 330.798 74.0146 331.188 73.7705C331.628 73.5264 332.116 73.4043 332.653 73.4043C333.483 73.4043 334.143 73.6973 334.631 74.2832C335.119 74.8203 335.363 75.4307 335.363 76.1143C335.363 76.6025 335.266 77.0176 335.07 77.3594C335.021 77.457 334.802 78.1162 334.411 79.3369C334.021 80.5576 333.825 82.3887 333.825 84.8301C333.825 87.7109 334.118 90.3721 334.704 92.8135C335.29 95.2549 335.998 97.3545 336.828 99.1123C337.658 100.87 338.513 102.262 339.392 103.287C340.319 104.264 341.076 104.752 341.662 104.752C342.053 104.752 342.614 104.386 343.347 103.653C344.128 102.921 344.934 101.92 345.764 100.65C346.643 99.3809 347.521 97.8672 348.4 96.1094C349.328 94.3516 350.158 92.4473 350.891 90.3965C351.672 88.2969 352.282 86.0996 352.722 83.8047C353.21 81.4609 353.454 79.0928 353.454 76.7002C353.454 76.2119 353.43 75.748 353.381 75.3086C353.381 74.8203 353.381 74.332 353.381 73.8438C353.381 73.0137 353.625 72.3301 354.113 71.793C354.65 71.207 355.334 70.9141 356.164 70.9141C356.799 70.9141 357.36 71.1094 357.849 71.5C358.386 71.8906 358.728 72.4277 358.874 73.1113C358.874 73.0625 358.972 73.4531 359.167 74.2832C359.362 75.1133 359.68 76.1875 360.119 77.5059C360.607 78.7754 361.193 80.167 361.877 81.6807C362.609 83.1943 363.464 84.6104 364.44 85.9287C365.466 87.1982 366.638 88.2725 367.956 89.1514C369.274 90.0303 370.788 90.4697 372.497 90.4697C373.425 90.4697 374.23 90.2744 374.914 89.8838C375.598 89.4932 376.159 89.0537 376.599 88.5654C377.038 88.0771 377.355 87.6133 377.551 87.1738C377.795 86.7344 377.917 86.4902 377.917 86.4414C378.112 85.9043 378.43 85.4893 378.869 85.1963C379.357 84.8545 379.895 84.6836 380.48 84.6836C381.262 84.6836 381.921 84.9766 382.458 85.5625C382.995 86.0996 383.264 86.7344 383.264 87.4668C383.264 87.8086 383.19 88.1504 383.044 88.4922C382.751 89.1758 382.312 89.957 381.726 90.8359C381.188 91.7148 380.48 92.5449 379.602 93.3262C378.723 94.1074 377.673 94.7666 376.452 95.3037C375.28 95.792 373.962 96.0361 372.497 96.0361C370.788 96.0361 369.201 95.7432 367.736 95.1572C366.271 94.5225 364.929 93.7412 363.708 92.8135C362.536 91.8369 361.462 90.7627 360.485 89.5908C359.509 88.3701 358.679 87.1494 357.995 85.9287ZM386.779 100.943C387.805 102.359 389.123 103.507 390.734 104.386C392.346 105.216 394.323 105.631 396.667 105.631C399.06 105.631 401.232 105.069 403.186 103.946C405.139 102.774 406.921 101.261 408.532 99.4053C410.144 97.5498 411.584 95.4746 412.854 93.1797C414.123 90.8848 415.271 88.5898 416.296 86.2949C416.54 85.7578 416.882 85.3672 417.321 85.123C417.761 84.8301 418.249 84.6836 418.786 84.6836C419.616 84.6836 420.275 84.9766 420.764 85.5625C421.301 86.1484 421.569 86.7832 421.569 87.4668C421.569 87.7109 421.545 87.9307 421.496 88.126C421.447 88.2725 421.374 88.4434 421.276 88.6387C417.907 96.0605 414.221 101.651 410.217 105.411C406.262 109.171 401.77 111.1 396.74 111.197C393.518 111.197 390.734 110.562 388.391 109.293C386.047 108.072 384.118 106.485 382.604 104.532C381.091 102.53 379.968 100.284 379.235 97.7939C378.503 95.3037 378.137 92.8135 378.137 90.3232C378.137 87.833 378.43 85.5381 379.016 83.4385C379.65 81.3389 380.529 79.5078 381.652 77.9453C382.824 76.3828 384.191 75.1621 385.754 74.2832C387.365 73.4043 389.123 72.9648 391.027 72.9648C392.15 72.9648 393.249 73.209 394.323 73.6973C395.446 74.1367 396.447 74.7959 397.326 75.6748C398.205 76.5049 398.913 77.5303 399.45 78.751C399.987 79.9717 400.256 81.3633 400.256 82.9258C400.256 84.9277 399.914 86.8076 399.23 88.5654C398.547 90.3232 397.595 91.959 396.374 93.4727C395.202 94.9863 393.786 96.3779 392.126 97.6475C390.466 98.917 388.684 100.016 386.779 100.943ZM384.582 96.1826C386.096 95.5479 387.463 94.7422 388.684 93.7656C389.953 92.7891 391.027 91.7148 391.906 90.543C392.785 89.3711 393.469 88.1504 393.957 86.8809C394.445 85.5625 394.689 84.2441 394.689 82.9258C394.689 81.4609 394.323 80.3623 393.591 79.6299C392.858 78.8486 392.004 78.458 391.027 78.458C389.709 78.458 388.586 78.8242 387.658 79.5566C386.73 80.2891 385.974 81.2412 385.388 82.4131C384.802 83.585 384.362 84.9033 384.069 86.3682C383.825 87.7842 383.703 89.2002 383.703 90.6162C383.703 91.4951 383.776 92.4229 383.923 93.3994C384.118 94.376 384.338 95.3037 384.582 96.1826ZM578.381 97.0615C578.332 97.1592 578.039 97.5742 577.502 98.3066C576.965 99.0391 576.184 99.9424 575.158 101.017C574.182 102.042 572.937 103.165 571.423 104.386C569.958 105.558 568.2 106.656 566.149 107.682C564.147 108.658 561.877 109.488 559.338 110.172C556.799 110.855 553.991 111.197 550.915 111.197C546.13 111.197 541.638 110.587 537.438 109.366C533.239 108.194 529.187 106.681 525.28 104.825C521.423 102.97 517.614 100.919 513.854 98.6729C510.095 96.4268 506.262 94.2295 502.355 92.0811C499.963 96.085 497.204 99.3564 494.079 101.896C491.003 104.386 487.78 106.339 484.411 107.755C481.091 109.171 477.771 110.123 474.45 110.611C471.179 111.148 468.151 111.417 465.368 111.417C462.683 111.417 459.948 111.124 457.165 110.538C454.431 110.001 451.94 109.098 449.694 107.828C447.497 106.51 445.69 104.801 444.274 102.701C442.858 100.602 442.15 97.9893 442.15 94.8643C442.15 91.9346 442.834 89.2979 444.201 86.9541C445.52 84.5615 447.351 82.5352 449.694 80.875C452.087 79.2148 454.895 77.9453 458.117 77.0664C461.34 76.1387 464.807 75.6748 468.518 75.6748C471.301 75.6748 474.06 75.9189 476.794 76.4072C479.577 76.8955 482.287 77.5547 484.924 78.3848C487.561 79.2148 490.124 80.167 492.614 81.2412C495.104 82.2666 497.448 83.3164 499.646 84.3906C499.938 83.5117 500.183 82.6328 500.378 81.7539C500.622 80.875 500.817 79.9229 500.964 78.8975C501.159 77.8232 501.281 76.6514 501.33 75.3818C501.428 74.0635 501.477 72.5498 501.477 70.8408C501.477 69.2295 501.428 67.6914 501.33 66.2266C501.281 64.7617 501.208 63.1748 501.11 61.4658C501.062 59.708 500.988 57.7549 500.891 55.6064C500.842 53.4092 500.817 50.7969 500.817 47.7695C500.817 40.7871 501.501 34.4395 502.868 28.7266C504.235 22.9648 506.262 18.0332 508.947 13.9316C511.633 9.83008 514.978 6.65625 518.981 4.41016C522.985 2.11523 527.648 0.967773 532.971 0.967773C536.193 0.967773 539.245 1.48047 542.126 2.50586C545.056 3.53125 547.619 4.99609 549.816 6.90039C552.062 8.80469 553.82 11.0752 555.09 13.7119C556.408 16.3486 557.067 19.2783 557.067 22.501C557.067 24.2588 556.823 26.0898 556.335 27.9941C555.847 29.8984 555.163 31.6562 554.284 33.2676C553.454 34.8301 552.478 36.124 551.354 37.1494C550.28 38.1748 549.133 38.6875 547.912 38.6875C547.229 38.6875 546.618 38.4922 546.081 38.1016C545.544 37.7109 545.275 37.1006 545.275 36.2705C545.275 35.6846 545.397 35.1963 545.642 34.8057C545.935 34.3662 546.276 33.9756 546.667 33.6338C548.083 32.3643 549.23 30.8018 550.109 28.9463C551.037 27.0908 551.501 24.9424 551.501 22.501C551.501 20.0596 550.988 17.8623 549.963 15.9092C548.986 13.9072 547.644 12.2227 545.935 10.8555C544.274 9.43945 542.321 8.36523 540.075 7.63281C537.878 6.85156 535.559 6.46094 533.117 6.46094C528.527 6.46094 524.548 7.46191 521.179 9.46387C517.81 11.4658 515.026 14.2979 512.829 17.96C510.632 21.5732 508.996 25.9678 507.922 31.1436C506.896 36.2705 506.384 41.9834 506.384 48.2822C506.384 51.3096 506.408 53.9707 506.457 56.2656C506.555 58.5605 506.628 60.6602 506.677 62.5645C506.774 64.4688 506.848 66.2754 506.896 67.9844C506.994 69.6445 507.043 71.3535 507.043 73.1113C507.043 74.1367 506.994 75.2598 506.896 76.4805C506.799 77.6523 506.652 78.873 506.457 80.1426C506.262 81.3633 505.993 82.584 505.651 83.8047C505.358 84.9766 505.017 86.0508 504.626 87.0273C508.337 88.9805 511.999 91.0557 515.612 93.2529C519.226 95.4502 522.888 97.4766 526.599 99.332C530.358 101.139 534.216 102.652 538.171 103.873C542.175 105.045 546.398 105.631 550.842 105.631C554.748 105.631 558.117 105.045 560.949 103.873C563.83 102.701 566.198 101.407 568.054 99.9912C569.958 98.5264 571.374 97.208 572.302 96.0361C573.229 94.8154 573.693 94.1807 573.693 94.1318C574.23 93.2529 575.012 92.8135 576.037 92.8135C576.867 92.8135 577.526 93.1064 578.015 93.6924C578.552 94.2783 578.82 94.9131 578.82 95.5967C578.82 96.1338 578.674 96.6221 578.381 97.0615ZM497.521 89.3711C495.422 88.3457 493.2 87.3447 490.856 86.3682C488.562 85.3428 486.193 84.4395 483.752 83.6582C481.311 82.877 478.796 82.2666 476.208 81.8271C473.669 81.3389 471.13 81.0947 468.591 81.0947C465.71 81.0947 463 81.4121 460.461 82.0469C457.922 82.6328 455.7 83.5117 453.796 84.6836C451.892 85.8555 450.378 87.2715 449.255 88.9316C448.181 90.5918 447.644 92.4717 447.644 94.5713C447.644 96.5244 448.132 98.2334 449.108 99.6982C450.085 101.114 451.379 102.311 452.99 103.287C454.65 104.215 456.555 104.923 458.703 105.411C460.852 105.851 463.098 106.07 465.441 106.07C468.273 106.07 471.203 105.851 474.23 105.411C477.258 104.923 480.188 104.068 483.02 102.848C485.852 101.578 488.513 99.8691 491.003 97.7207C493.493 95.5234 495.666 92.7402 497.521 89.3711ZM618.298 100.943C617.077 100.943 616.003 100.846 615.075 100.65C614.343 102.115 613.464 103.482 612.438 104.752C611.413 105.973 610.217 107.047 608.85 107.975C607.531 108.902 606.042 109.635 604.382 110.172C602.722 110.709 600.915 110.978 598.962 110.978C596.667 110.978 594.567 110.562 592.663 109.732C590.759 108.951 589.099 107.853 587.683 106.437C586.267 104.972 585.168 103.238 584.387 101.236C583.605 99.1855 583.215 96.9395 583.215 94.498C583.215 91.373 583.776 88.6631 584.899 86.3682C586.022 84.0244 587.316 82.0957 588.781 80.582C590.246 79.0195 591.711 77.8721 593.176 77.1396C594.641 76.3584 595.739 75.9678 596.472 75.9678C597.302 75.9678 597.912 76.1875 598.303 76.627C598.742 77.0664 598.962 77.6523 598.962 78.3848C598.962 79.2148 598.693 79.8496 598.156 80.2891C597.668 80.6797 597.033 81.0703 596.252 81.4609C595.471 81.8516 594.641 82.4131 593.762 83.1455C592.883 83.8291 592.053 84.708 591.271 85.7822C590.539 86.8564 589.929 88.126 589.44 89.5908C588.952 91.0557 588.708 92.6914 588.708 94.498C588.708 96.1094 588.952 97.623 589.44 99.0391C589.929 100.406 590.637 101.603 591.564 102.628C592.492 103.604 593.591 104.386 594.86 104.972C596.13 105.509 597.546 105.777 599.108 105.777C601.892 105.777 604.187 105.143 605.993 103.873C607.849 102.555 609.265 100.895 610.241 98.8926C607.36 97.3789 604.992 95.2305 603.137 92.4473C601.281 89.6641 600.354 86.5391 600.354 83.0723C600.354 80.2891 601.013 78.0186 602.331 76.2607C603.698 74.5029 605.48 73.624 607.678 73.624C608.996 73.624 610.241 73.9414 611.413 74.5762C612.585 75.2109 613.61 76.2119 614.489 77.5791C615.417 78.9463 616.149 80.7041 616.687 82.8525C617.224 85.001 617.492 87.5645 617.492 90.543C617.492 92.1055 617.297 93.7412 616.906 95.4502C617.199 95.499 617.492 95.5234 617.785 95.5234C618.078 95.5234 618.396 95.5234 618.737 95.5234C620.397 95.5234 621.887 95.3281 623.205 94.9375C624.523 94.5469 625.72 93.9609 626.794 93.1797C627.868 92.3984 628.82 91.3975 629.65 90.1768C630.529 88.9561 631.359 87.54 632.141 85.9287C632.287 85.6357 632.604 85.3672 633.093 85.123C633.581 84.8301 634.069 84.6836 634.558 84.6836C635.192 84.6836 635.778 84.9521 636.315 85.4893C636.901 85.9775 637.194 86.6367 637.194 87.4668C637.194 87.8574 637.097 88.2969 636.901 88.7852C636.706 89.2246 636.511 89.6396 636.315 90.0303C635.485 91.4951 634.509 92.9111 633.386 94.2783C632.312 95.5967 631.018 96.7686 629.504 97.7939C628.039 98.7705 626.379 99.5518 624.523 100.138C622.668 100.724 620.593 100.992 618.298 100.943ZM605.773 82.4863C605.773 83.4141 605.896 84.3906 606.14 85.416C606.384 86.4414 606.75 87.4668 607.238 88.4922C607.775 89.4688 608.41 90.4209 609.143 91.3486C609.924 92.2275 610.827 92.9844 611.853 93.6191C611.999 92.5938 612.072 91.5928 612.072 90.6162C612.072 89.2979 611.975 87.9551 611.779 86.5879C611.584 85.2207 611.291 83.9756 610.9 82.8525C610.559 81.6807 610.119 80.7529 609.582 80.0693C609.045 79.3369 608.41 78.9707 607.678 78.9707C607.385 78.9707 606.994 79.1904 606.506 79.6299C606.018 80.0693 605.773 81.0215 605.773 82.4863ZM691.32 35.6846C691.32 36.4658 691.052 37.1006 690.515 37.5889C689.978 38.0283 689.318 38.248 688.537 38.248H651.403V39.0537C651.403 42.0322 651.184 45.2061 650.744 48.5752C650.305 51.9443 649.694 55.3135 648.913 58.6826C648.181 62.0029 647.326 65.25 646.35 68.4238C645.422 71.5977 644.445 74.5273 643.42 77.2129C642.443 79.8984 641.467 82.2422 640.49 84.2441C639.514 86.1973 638.635 87.6621 637.854 88.6387C638.488 90.8848 639.245 92.9844 640.124 94.9375C641.003 96.8418 641.979 98.5264 643.054 99.9912C644.177 101.407 645.373 102.53 646.643 103.36C647.912 104.19 649.279 104.605 650.744 104.605C652.453 104.605 654.138 103.897 655.798 102.481C657.507 101.017 659.069 99.3076 660.485 97.3545C661.95 95.3525 663.22 93.3506 664.294 91.3486C665.417 89.2979 666.223 87.6621 666.711 86.4414C667.199 85.2695 668.054 84.6836 669.274 84.6836C670.104 84.6836 670.764 84.9766 671.252 85.5625C671.789 86.1484 672.058 86.7832 672.058 87.4668C672.058 87.8086 671.984 88.1504 671.838 88.4922C671.691 88.834 671.325 89.6152 670.739 90.8359C670.202 92.0566 669.47 93.4727 668.542 95.084C667.663 96.6953 666.613 98.4043 665.393 100.211C664.221 101.969 662.878 103.58 661.364 105.045C659.899 106.51 658.312 107.73 656.604 108.707C654.895 109.684 653.088 110.172 651.184 110.172C647.814 110.172 644.787 109.073 642.102 106.876C639.416 104.679 637.121 101.603 635.217 97.6475C633.361 93.6924 631.945 89.0049 630.969 83.585C629.992 78.165 629.504 72.2324 629.504 65.7871C629.504 64.1758 629.528 62.2959 629.577 60.1475C629.626 57.9502 629.724 55.6553 629.87 53.2627C630.017 50.8213 630.236 48.3311 630.529 45.792C630.822 43.2041 631.213 40.6895 631.701 38.248H605.407C604.626 38.248 603.967 38.0283 603.43 37.5889C602.893 37.1006 602.624 36.4658 602.624 35.6846C602.624 34.9033 602.893 34.293 603.43 33.8535C603.967 33.3652 604.626 33.1211 605.407 33.1211H632.946C633.435 31.3633 633.996 29.752 634.631 28.2871C635.314 26.8223 636.071 25.5527 636.901 24.4785C637.78 23.4043 638.732 22.5742 639.758 21.9883C640.832 21.3535 642.004 21.0361 643.273 21.0361C644.494 21.0361 645.544 21.3535 646.423 21.9883C647.351 22.5742 648.132 23.4043 648.767 24.4785C649.401 25.5527 649.89 26.8223 650.231 28.2871C650.622 29.752 650.915 31.3633 651.11 33.1211H688.537C689.318 33.1211 689.978 33.3652 690.515 33.8535C691.052 34.293 691.32 34.9033 691.32 35.6846ZM636.169 81.3145C637.634 78.0918 638.952 74.625 640.124 70.9141C641.345 67.1543 642.37 63.3701 643.2 59.5615C644.079 55.7529 644.738 52.0176 645.178 48.3555C645.666 44.6934 645.91 41.3242 645.91 38.248H637.268C636.584 41.2754 636.022 45.0352 635.583 49.5273C635.192 53.9707 634.997 59.3906 634.997 65.7871C634.997 69.3516 635.095 72.3545 635.29 74.7959C635.485 77.1885 635.778 79.3613 636.169 81.3145ZM642.98 26.5293C642.541 26.5293 641.906 27.0176 641.076 27.9941C640.246 28.9219 639.416 30.6309 638.586 33.1211H645.617C645.373 31.0703 645.007 29.459 644.519 28.2871C644.079 27.1152 643.566 26.5293 642.98 26.5293ZM637.341 86.5879V86.6611V86.5879ZM691.32 100.797C689.611 103.58 687.609 105.777 685.314 107.389C683.068 109 680.798 109.806 678.503 109.806C676.647 109.806 674.987 109.464 673.522 108.78C672.058 108.097 670.788 107.145 669.714 105.924C668.64 104.654 667.81 103.141 667.224 101.383C666.687 99.625 666.418 97.6475 666.418 95.4502C666.418 92.0322 666.735 89.0049 667.37 86.3682C668.054 83.7314 668.786 81.5342 669.567 79.7764C670.349 77.9697 671.081 76.6025 671.765 75.6748C672.448 74.7471 672.79 74.2832 672.79 74.2832C673.034 73.9902 673.327 73.7705 673.669 73.624C674.06 73.4775 674.45 73.4043 674.841 73.4043C675.622 73.4043 676.257 73.6973 676.745 74.2832C677.282 74.8203 677.551 75.4551 677.551 76.1875C677.551 76.4805 677.478 76.7734 677.331 77.0664C677.233 77.3594 677.111 77.6523 676.965 77.9453C676.721 78.3848 676.33 79.0684 675.793 79.9961C675.256 80.875 674.694 82.0469 674.108 83.5117C673.522 84.9766 673.01 86.71 672.57 88.7119C672.131 90.665 671.911 92.9111 671.911 95.4502C671.911 98.3311 672.473 100.528 673.596 102.042C674.768 103.507 676.403 104.239 678.503 104.239C679.382 104.239 680.383 103.971 681.506 103.434C682.678 102.848 683.801 101.969 684.875 100.797C685.998 99.625 686.975 98.1357 687.805 96.3291C688.635 94.5225 689.172 92.3984 689.416 89.957L690.515 77.3594C690.612 76.627 690.93 76.0166 691.467 75.5283C692.004 75.04 692.639 74.7959 693.371 74.7959C694.201 74.7959 694.86 75.1133 695.349 75.748C695.837 76.334 696.081 77.0176 696.081 77.7988L695.129 89.957C695.031 90.9824 695.056 92.3252 695.202 93.9854C695.397 95.6455 695.764 97.2812 696.301 98.8926C696.838 100.504 697.644 101.896 698.718 103.067C699.792 104.19 701.208 104.752 702.966 104.752C704.235 104.752 705.48 104.435 706.701 103.8C707.922 103.116 709.094 102.237 710.217 101.163C711.34 100.089 712.365 98.8926 713.293 97.5742C714.27 96.207 715.148 94.8398 715.93 93.4727C716.76 92.1055 717.468 90.8115 718.054 89.5908C718.64 88.3213 719.128 87.2471 719.519 86.3682C719.763 85.8311 720.104 85.416 720.544 85.123C720.983 84.8301 721.472 84.6836 722.009 84.6836C722.888 84.6836 723.571 84.9766 724.06 85.5625C724.548 86.1484 724.792 86.7832 724.792 87.4668C724.792 87.8574 724.719 88.2236 724.572 88.5654C724.377 88.9561 723.986 89.7861 723.4 91.0557C722.863 92.2764 722.131 93.6924 721.203 95.3037C720.324 96.8662 719.25 98.5264 717.98 100.284C716.711 102.042 715.295 103.678 713.732 105.191C712.17 106.656 710.461 107.877 708.605 108.854C706.799 109.781 704.846 110.245 702.746 110.245C699.865 110.245 697.473 109.439 695.568 107.828C693.664 106.168 692.248 103.824 691.32 100.797ZM727.722 81.9004C727.429 82.6816 727.062 83.5605 726.623 84.5371C726.232 85.5137 725.769 86.5391 725.231 87.6133C724.792 88.4434 724.328 89.1025 723.84 89.5908C723.4 90.0303 722.814 90.25 722.082 90.25C721.252 90.25 720.593 90.0059 720.104 89.5176C719.616 88.9805 719.372 88.3701 719.372 87.6865C719.372 87.4424 719.396 87.2471 719.445 87.1006C719.494 86.9053 719.616 86.6123 719.812 86.2217C721.081 83.7803 722.009 81.6562 722.595 79.8496C723.229 77.9941 723.742 76.0654 724.133 74.0635C723.791 72.9404 723.547 71.9883 723.4 71.207C723.254 70.4258 723.181 69.6201 723.181 68.79C723.181 67.1787 723.522 65.8848 724.206 64.9082C724.89 63.8828 725.842 63.3701 727.062 63.3701C728.186 63.3701 729.064 63.8584 729.699 64.835C730.383 65.8115 730.725 67.0078 730.725 68.4238C730.725 69.2051 730.651 69.9863 730.505 70.7676C730.358 71.5488 730.163 72.5254 729.919 73.6973C731.042 76.4805 732.165 78.9463 733.288 81.0947C734.411 83.2432 735.412 85.2207 736.291 87.0273C737.17 88.7852 737.878 90.4453 738.415 92.0078C739.001 93.5703 739.294 95.1328 739.294 96.6953C739.294 98.7461 738.879 100.699 738.049 102.555C737.219 104.41 735.852 105.973 733.947 107.242C734.191 107.291 734.436 107.315 734.68 107.315C734.924 107.315 735.168 107.315 735.412 107.315C738.195 107.315 740.759 106.681 743.103 105.411C745.446 104.142 747.546 102.506 749.401 100.504C751.306 98.4531 752.99 96.207 754.455 93.7656C755.92 91.2754 757.189 88.8096 758.264 86.3682C758.752 85.2451 759.436 84.6836 760.314 84.6836C761.145 84.6836 761.779 84.9766 762.219 85.5625C762.707 86.1484 762.951 86.7832 762.951 87.4668C762.951 87.8574 762.878 88.2236 762.731 88.5654C762.194 89.8838 761.486 91.3975 760.607 93.1064C759.777 94.7666 758.752 96.5 757.531 98.3066C756.359 100.064 754.992 101.798 753.43 103.507C751.867 105.216 750.109 106.754 748.156 108.121C746.252 109.439 744.152 110.489 741.857 111.271C739.562 112.101 737.048 112.516 734.313 112.516C731.042 112.516 727.99 111.93 725.158 110.758C722.375 109.635 720.104 107.755 718.347 105.118C718.054 104.679 717.907 104.215 717.907 103.727C717.907 102.994 718.176 102.359 718.713 101.822C719.299 101.236 719.958 100.943 720.69 100.943C721.472 100.943 722.131 101.212 722.668 101.749C722.717 101.847 722.888 102.018 723.181 102.262C723.474 102.457 723.815 102.701 724.206 102.994C724.646 103.238 725.134 103.458 725.671 103.653C726.257 103.849 726.843 103.946 727.429 103.946C728.601 103.946 729.577 103.702 730.358 103.214C731.188 102.726 731.848 102.14 732.336 101.456C732.824 100.724 733.166 99.9668 733.361 99.1855C733.605 98.3555 733.728 97.6475 733.728 97.0615C733.728 95.8408 733.532 94.6201 733.142 93.3994C732.751 92.1787 732.238 90.958 731.604 89.7373C731.018 88.5166 730.358 87.2715 729.626 86.002C728.942 84.6836 728.308 83.3164 727.722 81.9004Z" fill="black"/>
</svg>
